<?xml version="1.0" standalone="no"?>
<!DOCTYPE svg PUBLIC "-//W3C//DTD SVG 20010904//EN"
 "http://www.w3.org/TR/2001/REC-SVG-20010904/DTD/svg10.dtd">
<svg version="1.0" xmlns="http://www.w3.org/2000/svg"
 width="50.000000pt" height="50.000000pt" viewBox="0 0 50.000000 50.000000"
 preserveAspectRatio="xMidYMid meet">
<metadata>
Created by potrace 1.10, written by Peter Selinger 2001-2011
</metadata>
<g transform="translate(0.000000,50.000000) scale(0.100000,-0.100000)"
fill="#e42525" stroke="none">
<path d="M101 432 c-66 -33 -76 -57 -79 -208 l-4 -134 101 0 101 0 0 100 0
100 -55 0 c-51 0 -55 2 -55 23 0 28 26 67 46 67 9 0 14 11 14 35 0 41 -16 45
-69 17z m-9 -64 c-17 -17 -15 -68 5 -90 9 -10 29 -18 44 -18 17 0 32 -7 37
-17 15 -32 13 -90 -3 -107 -19 -19 -95 -22 -113 -4 -19 19 -16 173 4 214 9 19
21 34 27 34 7 0 7 -4 -1 -12z"/>
<path d="M361 432 c-66 -33 -76 -57 -79 -208 l-4 -134 101 0 101 0 0 100 0
100 -55 0 c-51 0 -55 2 -55 23 0 28 26 67 46 67 9 0 14 11 14 35 0 41 -16 45
-69 17z m-1 -157 c7 -8 25 -15 40 -15 36 0 47 -15 48 -67 2 -54 -17 -73 -73
-73 -57 0 -63 12 -60 122 3 96 15 133 26 81 3 -18 12 -40 19 -48z"/>
</g>
</svg>
